# xmcd
#
# Track frame offsets:
# 150
# 13653
# 26935
# 39472
# 54255
# 67807
# 80286
# 93715
# 106409
# 117355
# 130386
# 144066
# 157177
# 170094
# 180776
# 199837
# 211644
# 224438
# 237896
# 263037
#
# Disc length: 3649 seconds
#
# Revision: 0
# Processed by: cddbd v1.4PL0 Copyright (c) Steve Scherf et al.
# Submitted via: Axialis_AX_CDPlayer 2.6
#
DISCID=120e3f14
DTITLE=Etta James - Her Best
DYEAR=1900
DGENRE=
TTITLE0=At Last
TTITLE1=All I Could Do Is Cry
TTITLE2=If I Can't Have You (with Harvey Fuqua)
TTITLE3=A Sunday Kind Of Love
TTITLE4=My Dearest Darling
TTITLE5=Something's Got A Hold On Me
TTITLE6=Trust In Me
TTITLE7=Next Door To The Blues
TTITLE8=Don't Cry Baby
TTITLE9=Fool That I Am
TTITLE10=Two Sides To Every Story
TTITLE11=Pushover
TTITLE12=Stop The Wedding
TTITLE13=In The Basement, Part One (with Sugar Pie De Santo)
TTITLE14=Baby, What You Want Me To Do (live)
TTITLE15=I'd Rather Go Blind
TTITLE16=Security
TTITLE17=Loser's Weepers, Part One
TTITLE18=All The Way Down
TTITLE19=Tell Mama
EXTD=
EXTT0=
EXTT1=
EXTT2=
EXTT3=
EXTT4=
EXTT5=
EXTT6=
EXTT7=
EXTT8=
EXTT9=
EXTT10=
EXTT11=
EXTT12=
EXTT13=
EXTT14=
EXTT15=
EXTT16=
EXTT17=
EXTT18=
EXTT19=
PLAYORDER=
